# xmcd
#
# Track frame offsets:
#	150
#	14335
#	26540
#	38620
#	50292
#	60732
#	72152
#	83972
#	94450
#	107655
#	120122
#	132842
#	143817
#	157052
#	168422
#	181630
#
# Disc length: 2578 seconds
#
# Revision: 0
# Processed by: cddbd v1.4PL0 Copyright (c) Steve Scherf et al.
# Submitted via: dBpowerAMP V4.0
#
DISCID=ca0a1010
DTITLE=WAYNE RANEY - Songs Of The Hills
DYEAR=1987
DGENRE=General Country
TTITLE0=Why Don'T You Haul Off And Love Me
TTITLE1=Lost John Boogie
TTITLE2=Lonesome Wind Blues
TTITLE3=Pardon My Whiskers
TTITLE4=Mama Don'T You Remember When You Were Young
TTITLE5=The Roosters Are Crowing
TTITLE6=I Was There
TTITLE7=We Love To Live
TTITLE8=I Love My Little Yo Yo
TTITLE9=My Annabelle Lee
TTITLE10=Jack And Jill Boogie
TTITLE11=Adam
TTITLE12=I'Ve Gone And Sold My Soul
TTITLE13=Gone With The Wind This Morning
TTITLE14=Burning Your Love Letters
TTITLE15=Catfish Baby
EXTD=william hale
EXTT0=
EXTT1=
EXTT2=
EXTT3=
EXTT4=
EXTT5=
EXTT6=
EXTT7=
EXTT8=
EXTT9=
EXTT10=
EXTT11=
EXTT12=
EXTT13=
EXTT14=
EXTT15=
PLAYORDER=
